<svg width="13" height="8" viewBox="0 0 13 8" fill="#fffff" xmlns="http://www.w3.org/2000/svg">
<path d="M11.778 0.4515C11.6786 0.351871 11.5605 0.272828 11.4305 0.218898C11.3005 0.164967 11.1611 0.137207 11.0204 0.137207C10.8796 0.137207 10.7402 0.164967 10.6102 0.218898C10.4802 0.272828 10.3621 0.351871 10.2627 0.4515L6.09281 4.62138L1.92293 0.4515C1.82343 0.352001 1.70531 0.273075 1.57531 0.219227C1.44531 0.165378 1.30597 0.137662 1.16526 0.137662C1.02455 0.137662 0.885211 0.165378 0.75521 0.219227C0.625208 0.273075 0.507085 0.352001 0.407586 0.4515C0.308086 0.550999 0.229162 0.669122 0.175314 0.799123C0.121466 0.929125 0.09375 1.06846 0.09375 1.20917C0.09375 1.34988 0.121466 1.48922 0.175314 1.61922C0.229162 1.74922 0.308086 1.86735 0.407586 1.96684L5.34052 6.89977C5.43994 6.9994 5.55804 7.07844 5.68805 7.13238C5.81806 7.18631 5.95743 7.21407 6.09819 7.21407C6.23894 7.21407 6.37831 7.18631 6.50832 7.13238C6.63834 7.07844 6.75643 6.9994 6.85586 6.89977L11.7888 1.96684C12.1972 1.55845 12.1972 0.870638 11.778 0.4515Z" fill="#ffffff"/>
</svg>
