<svg width="30" height="30" viewBox="0 0 30 30" fill="none" xmlns="http://www.w3.org/2000/svg">
<path d="M15.3848 0.175781C7.38077 0.175781 0.884766 6.67178 0.884766 14.6758C0.884766 22.6798 7.38077 29.1758 15.3848 29.1758C23.3888 29.1758 29.8848 22.6798 29.8848 14.6758C29.8848 6.67178 23.3888 0.175781 15.3848 0.175781ZM15.3848 21.9258C14.5873 21.9258 13.9348 21.2733 13.9348 20.4758V14.6758C13.9348 13.8783 14.5873 13.2258 15.3848 13.2258C16.1823 13.2258 16.8348 13.8783 16.8348 14.6758V20.4758C16.8348 21.2733 16.1823 21.9258 15.3848 21.9258ZM16.8348 10.3258H13.9348V7.42578H16.8348V10.3258Z" fill="#E1E1E1"/>
</svg>
