<svg width="25" height="30" viewBox="0 0 25 30" fill="none" xmlns="http://www.w3.org/2000/svg">
<path d="M12.7223 29.1758C14.4387 29.1758 15.843 27.8373 15.843 26.2014H9.60163C9.60163 26.9903 9.93042 27.7468 10.5157 28.3046C11.1009 28.8624 11.8947 29.1758 12.7223 29.1758ZM22.0844 20.2527V12.8168C22.0844 8.25117 19.5255 4.42911 15.0629 3.41783V2.40655C15.0629 1.17219 14.0174 0.175781 12.7223 0.175781C11.4272 0.175781 10.3818 1.17219 10.3818 2.40655V3.41783C5.9036 4.42911 3.36023 8.23629 3.36023 12.8168V20.2527L1.34737 22.1712C0.364353 23.1081 1.05091 24.7142 2.43962 24.7142H22.9894C24.3782 24.7142 25.0803 23.1081 24.0973 22.1712L22.0844 20.2527Z" fill="#E1E1E1"/>
</svg>
